<mxfile host="app.diagrams.net" modified="2023-10-19T22:14:14.367Z" agent="Mozilla/5.0 (X11; Linux x86_64) AppleWebKit/537.36 (KHTML, like Gecko) Chrome/117.0.0.0 Safari/537.36" etag="Dm-Q5-TuEeVIr6es0-BC" version="21.7.4" type="device">
  <diagram name="Page-1" id="lPnadb4CxHEFe1yul_0U">
    <mxGraphModel dx="989" dy="476" grid="1" gridSize="10" guides="1" tooltips="1" connect="1" arrows="1" fold="1" page="1" pageScale="1" pageWidth="850" pageHeight="1100" math="1" shadow="0">
      <root>
        <mxCell id="0" />
        <mxCell id="1" parent="0" />
        <mxCell id="Y_xLjtUIK3R0hwWofkf7-2" value="&lt;font face=&quot;Times New Roman&quot; style=&quot;font-size: 30px;&quot;&gt;EMT_Circuit&lt;/font&gt;" style="rounded=1;whiteSpace=wrap;html=1;strokeWidth=2;" parent="1" vertex="1">
          <mxGeometry x="240" y="240" width="240" height="130" as="geometry" />
        </mxCell>
        <mxCell id="Y_xLjtUIK3R0hwWofkf7-3" value="" style="endArrow=classic;html=1;rounded=0;strokeWidth=2;endFill=1;" parent="1" edge="1">
          <mxGeometry width="50" height="50" relative="1" as="geometry">
            <mxPoint x="159" y="305" as="sourcePoint" />
            <mxPoint x="219" y="305" as="targetPoint" />
          </mxGeometry>
        </mxCell>
        <mxCell id="Y_xLjtUIK3R0hwWofkf7-6" value="" style="endArrow=classic;html=1;rounded=0;strokeWidth=2;endFill=1;" parent="1" edge="1">
          <mxGeometry width="50" height="50" relative="1" as="geometry">
            <mxPoint x="500" y="304.58" as="sourcePoint" />
            <mxPoint x="560" y="304.58" as="targetPoint" />
          </mxGeometry>
        </mxCell>
        <mxCell id="Y_xLjtUIK3R0hwWofkf7-10" value="" style="whiteSpace=wrap;html=1;aspect=fixed;fillColor=#EA6B66;strokeColor=#EA6B66;" parent="1" vertex="1">
          <mxGeometry x="154" y="302" width="6" height="6" as="geometry" />
        </mxCell>
        <mxCell id="Y_xLjtUIK3R0hwWofkf7-13" value="" style="whiteSpace=wrap;html=1;aspect=fixed;fillColor=#EA6B66;strokeColor=#EA6B66;" parent="1" vertex="1">
          <mxGeometry x="560" y="301" width="6" height="6" as="geometry" />
        </mxCell>
        <mxCell id="q1MuwfxfImosDESLujid-1" value="&lt;font style=&quot;font-size: 28px;&quot;&gt;$$V_\text{in}$$&lt;/font&gt;" style="text;html=1;strokeColor=none;fillColor=none;align=center;verticalAlign=middle;whiteSpace=wrap;rounded=0;" vertex="1" parent="1">
          <mxGeometry x="148" y="261" width="60" height="40" as="geometry" />
        </mxCell>
        <mxCell id="q1MuwfxfImosDESLujid-3" value="&lt;font style=&quot;font-size: 28px;&quot;&gt;$$V_\text{c}$$&lt;/font&gt;" style="text;html=1;strokeColor=none;fillColor=none;align=center;verticalAlign=middle;whiteSpace=wrap;rounded=0;" vertex="1" parent="1">
          <mxGeometry x="500" y="261" width="60" height="40" as="geometry" />
        </mxCell>
        <mxCell id="q1MuwfxfImosDESLujid-4" value="" style="whiteSpace=wrap;html=1;aspect=fixed;fillColor=#EA6B66;strokeColor=#EA6B66;" vertex="1" parent="1">
          <mxGeometry x="218" y="294" width="22" height="22" as="geometry" />
        </mxCell>
        <mxCell id="q1MuwfxfImosDESLujid-5" value="" style="whiteSpace=wrap;html=1;aspect=fixed;fillColor=#EA6B66;strokeColor=#EA6B66;" vertex="1" parent="1">
          <mxGeometry x="480" y="294" width="22" height="22" as="geometry" />
        </mxCell>
      </root>
    </mxGraphModel>
  </diagram>
</mxfile>
